<svg xmlns="http://www.w3.org/2000/svg" viewBox="0 0 115.13 115.13"><defs><style>.cls-1{fill:#231f20;}.cls-2{fill:none;stroke:#231f20;stroke-miterlimit:10;stroke-width:3px;}</style></defs><g id="Layer_2" data-name="Layer 2"><g id="Layer_1-2" data-name="Layer 1"><path class="cls-1" d="M57.59,113.43h0a55.24,55.24,0,0,1-8.62-.67L57.5,58l0-.15h0l0,0ZM57.5,58.36l-.22,1.47.22,0Zm8.79,54.39L57.91,59.82l.3-.08-.63-1.9h0v0h0v0h0v0l0,0h0l0,.08v0l0,0v-.06l0,0h0l0,0,0,0,0,0-.11,0,0,0h0l.06,0-.12,0-.25,0H30.63L1.9,58.19v-.43a55.87,55.87,0,0,1,.67-8.58L55.45,57.4h.93l1,.29-.92-.3h.35l.59.3h0l-.07,0-.49-.25H57L12.48,25.1a56.5,56.5,0,0,1,5.64-6.62L57.19,57.37h.06l.25.31-.08-.16-.11-.15h0l-.74-1.45a2,2,0,0,0-.25.14L24.74,12.8a53.92,53.92,0,0,1,7.43-4.58L57.39,57.37h0L40.25,4.84a56.53,56.53,0,0,1,8.52-2L57.2,55.71l-.28.07.52,1.59h0l0,.19v-.19h0l0-.15V2.09h.06a55.47,55.47,0,0,1,8.55.66L57.66,57.37h0l-.1.31h0l0-.06v.05l.11-.16.08-.15h0L90.19,12.65a55.83,55.83,0,0,1,6.64,5.65L59,56.28a2.11,2.11,0,0,0-.23-.19l-.93,1.27H58l-.29.3.29-.3h.12l-.43.32h0l.12-.06.36-.26h.15l1.11-.57c0-.08-.09-.17-.15-.25L102.51,24.9a57.14,57.14,0,0,1,4.58,7.42l-48.68,25h.39l51.67-16.94a55.25,55.25,0,0,1,2.06,8.51L59.65,57.4v.28h53.58v.08a55.79,55.79,0,0,1-.67,8.67L57.82,57.84l-.18-.06h0l0,0h-.06l0,0h0l.16.08L102.6,90.49A56.58,56.58,0,0,1,97,97.11L57.69,57.9l-.07-.07h0l0,0h0v0h0l0,.05v0l.12.16.82,1.59a1.82,1.82,0,0,0,.23-.15l31.56,43.31a56.29,56.29,0,0,1-7.44,4.58L57.62,57.92,74.8,110.71A56.37,56.37,0,0,1,66.29,112.75ZM57.72,57.9l1.33,1.33a2,2,0,0,0,.19-.22Zm.33-.1,1.58.25a2.29,2.29,0,0,0,0-.25Zm-.54,0Zm0,0h0Zm0,0h0Zm0,0Zm0,0Zm0,0Zm0,0h0Zm0,0Zm0,0Zm0,0Zm0,0h0Zm0,0Zm0,0h0Zm0,0Zm0,0h0Zm0,0h0Zm0,0Zm0,0Zm0,0h0Zm0,0Zm0,0h0Zm.08,0Zm0,0Zm0,0h0Zm0,0v0h0Zm0,0h0Zm-.21,0Zm.47,0h.41l1.34-.21s0,0,0-.07Zm-.24,0,0,0Zm-.06,0Zm-.08-.09Zm-1.42-1.3a1.45,1.45,0,0,0-.19.23l1.18.85h.1Zm1.48-.62v1.7h0l.27-1.67Zm2,1.45-.71.23h.76A1.42,1.42,0,0,0,59.55,57.12ZM40.42,110.73a55.14,55.14,0,0,1-8.11-3.35L56.64,59.63l.28.11Zm-15.55-7.91a55.87,55.87,0,0,1-6.63-5.65L56.72,58.61l-.63.63.23.2,1.18-1.61-.1.2ZM12.58,90.55A53.92,53.92,0,0,1,8,83.12l49.39-25.3h.07l-.16.12-1.58.81a1.82,1.82,0,0,0,.15.23ZM107.17,83,59.43,58.69a2.33,2.33,0,0,0,.11-.28l51,16.54A55.37,55.37,0,0,1,107.17,83ZM4.63,75a56.4,56.4,0,0,1-2-8.51l52.93-8.4c0,.1,0,.19.07.29l1.81-.59ZM57.72,57.82h0Zm-.08-.26.06-.19h0Zm-2.06-.44-51-16.46a56.21,56.21,0,0,1,3.34-8.11L55.7,56.84C55.66,56.92,55.62,57,55.58,57.12Zm2.9-1.23-.27-.11,16.42-51A56.21,56.21,0,0,1,82.74,8.1Z"/><circle class="cls-2" cx="57.56" cy="57.56" r="56.06"/></g></g></svg>