<svg xmlns="http://www.w3.org/2000/svg" viewBox="0 0 567.88 52.53"><defs><style>.cls-1{fill:#231f20;}.cls-1,.cls-10,.cls-2,.cls-3,.cls-4,.cls-5,.cls-6,.cls-7,.cls-8,.cls-9{stroke:#231f20;stroke-miterlimit:10;}.cls-2{fill:#4a4a4c;}.cls-3{fill:#646667;}.cls-4{fill:#707173;}.cls-5{fill:#818386;}.cls-6{fill:#999a9d;}.cls-7{fill:#a2a3a6;}.cls-8{fill:#babbbd;}.cls-9{fill:#dddedf;}.cls-10{fill:none;}.cls-11{font-size:17.49px;fill:#fff;font-family:HelveticaNeueBold, HelveticaNeue;}</style></defs><g id="Layer_2" data-name="Layer 2"><g id="Layer_1-2" data-name="Layer 1"><rect class="cls-1" x="0.5" y="0.5" width="51.53" height="51.53"/><rect class="cls-2" x="52.03" y="0.5" width="51.53" height="51.53"/><rect class="cls-3" x="103.57" y="0.5" width="51.53" height="51.53"/><rect class="cls-4" x="155.1" y="0.5" width="51.53" height="51.53"/><rect class="cls-5" x="206.64" y="0.5" width="51.53" height="51.53"/><rect class="cls-6" x="258.17" y="0.5" width="51.53" height="51.53"/><rect class="cls-7" x="309.71" y="0.5" width="51.53" height="51.53"/><rect class="cls-8" x="361.24" y="0.5" width="51.53" height="51.53"/><rect class="cls-8" x="412.77" y="0.5" width="51.53" height="51.53"/><rect class="cls-9" x="464.31" y="0.5" width="51.53" height="51.53"/><rect class="cls-10" x="515.84" y="0.5" width="51.53" height="51.53"/><text class="cls-11" transform="translate(5.09 48.59)">100</text><text class="cls-11" transform="translate(56.63 48.59)">90</text><text class="cls-11" transform="translate(108.16 48.59)">80</text><text class="cls-11" transform="translate(159.69 48.59)">70</text><text class="cls-11" transform="translate(211.23 48.59)">60</text><text class="cls-11" transform="translate(262.76 48.59)">50</text><text class="cls-11" transform="translate(314.3 48.59)">40</text><text class="cls-11" transform="translate(365.83 48.59)">30</text><text class="cls-11" transform="translate(417.37 48.59)">20</text><text class="cls-11" transform="translate(468.9 48.59)">10</text></g></g></svg>