<svg xmlns="http://www.w3.org/2000/svg" viewBox="0 0 76.41 71.78"><defs><style>.cls-1{fill:none;stroke:#231f20;stroke-miterlimit:10;stroke-width:2px;}</style></defs><g id="Layer_2" data-name="Layer 2"><g id="Layer_1-2" data-name="Layer 1"><path class="cls-1" d="M58.15,20.94a19.78,19.78,0,0,1-2.67,10,19.94,19.94,0,0,0-17.27,10,20,20,0,0,0-17.28-10,19.94,19.94,0,1,1,37.22-10Z"/><path class="cls-1" d="M38.21,40.87a19.94,19.94,0,0,1-17.28-10A20,20,0,0,1,38.21,40.87Z"/><path class="cls-1" d="M38.21,60.81A19.93,19.93,0,1,1,20.93,30.9a19.94,19.94,0,0,0,17.28,10A19.92,19.92,0,0,0,38.21,60.81Z"/><path class="cls-1" d="M55.48,30.9a19.93,19.93,0,0,1-17.27,10A19.94,19.94,0,0,1,55.48,30.9Z"/><path class="cls-1" d="M38.21,60.81a19.92,19.92,0,0,1,0-19.94A19.92,19.92,0,0,1,38.21,60.81Z"/><path class="cls-1" d="M72.74,60.81a19.93,19.93,0,0,1-34.53,0,19.92,19.92,0,0,0,0-19.94,19.93,19.93,0,0,0,17.27-10A20,20,0,0,1,72.74,60.81Z"/></g></g></svg>