<svg xmlns="http://www.w3.org/2000/svg" viewBox="0 0 113.28 106.36"><defs><style>.cls-1{fill:#ec008c;}.cls-1,.cls-2,.cls-3,.cls-4,.cls-5,.cls-6{stroke:#231f20;stroke-miterlimit:10;stroke-width:2px;}.cls-2{fill:#2e3192;}.cls-3{fill:#00aeef;}.cls-4{fill:#ed1c24;}.cls-5{fill:#00a651;}.cls-6{fill:#fff200;}</style></defs><g id="Layer_2" data-name="Layer 2"><g id="Layer_1-2" data-name="Layer 1"><path class="cls-1" d="M86.46,30.81a29.67,29.67,0,0,1-4,14.91A29.78,29.78,0,0,0,56.64,60.63,29.78,29.78,0,0,0,30.81,45.72,29.82,29.82,0,1,1,86.46,30.81Z"/><path class="cls-2" d="M56.64,60.63A29.8,29.8,0,0,1,30.81,45.72,29.78,29.78,0,0,1,56.64,60.63Z"/><path class="cls-3" d="M56.64,90.45A29.81,29.81,0,1,1,30.81,45.72,29.8,29.8,0,0,0,56.64,60.63,29.8,29.8,0,0,0,56.64,90.45Z"/><path class="cls-4" d="M82.47,45.72A29.8,29.8,0,0,1,56.64,60.63,29.78,29.78,0,0,1,82.47,45.72Z"/><path class="cls-5" d="M56.64,90.45a29.8,29.8,0,0,1,0-29.82A29.8,29.8,0,0,1,56.64,90.45Z"/><path class="cls-6" d="M108.28,90.45a29.82,29.82,0,0,1-51.64,0,29.8,29.8,0,0,0,0-29.82A29.8,29.8,0,0,0,82.47,45.72a29.82,29.82,0,0,1,25.81,44.73Z"/></g></g></svg>