<svg xmlns="http://www.w3.org/2000/svg" viewBox="0 0 801 101"><defs><style>.cls-1{fill:#00aeef;}.cls-1,.cls-2,.cls-3,.cls-4,.cls-5,.cls-6,.cls-7,.cls-8{stroke:#231f20;stroke-miterlimit:10;}.cls-2{fill:#00a651;}.cls-3{fill:#fff200;}.cls-4{fill:#ed1c24;}.cls-5{fill:#ec008c;}.cls-6{fill:#2e3192;}.cls-7{fill:#363639;}.cls-8,.cls-9{fill:#231f20;}.cls-10,.cls-9{font-size:27px;font-family:HelveticaNeueBold, HelveticaNeue;}.cls-10{fill:#bcbec0;}</style></defs><g id="Layer_2" data-name="Layer 2"><g id="Layer_1-2" data-name="Layer 1"><rect class="cls-1" x="0.5" y="0.5" width="100" height="100"/><rect class="cls-2" x="100.5" y="0.5" width="100" height="100"/><rect class="cls-3" x="200.5" y="0.5" width="100" height="100"/><rect class="cls-4" x="300.5" y="0.5" width="100" height="100"/><rect class="cls-5" x="400.5" y="0.5" width="100" height="100"/><rect class="cls-6" x="500.5" y="0.5" width="100" height="100"/><rect class="cls-7" x="600.5" y="0.5" width="100" height="100"/><rect class="cls-8" x="700.5" y="0.5" width="100" height="100"/><text class="cls-9" transform="translate(41 59.13) scale(0.95 1)">C</text><text class="cls-9" transform="translate(132.34 59.13) scale(0.95 1)">CY</text><text class="cls-9" transform="translate(241.95 59.13) scale(0.95 1)">Y</text><text class="cls-9" transform="translate(330.44 59.13) scale(0.95 1)">YM</text><text class="cls-9" transform="translate(438.87 59.13) scale(0.95 1)">M</text><text class="cls-9" transform="translate(529.38 59.13) scale(0.95 1)">CM</text><text class="cls-9" transform="translate(620.71 59.13) scale(0.95 1)">CMY</text><text class="cls-10" transform="translate(741.17 59.13) scale(0.95 1)">K</text></g></g></svg>