<svg xmlns="http://www.w3.org/2000/svg" viewBox="0 0 114.38 47.43"><defs><style>.cls-1{fill:#231f20;}</style></defs><g id="Layer_2" data-name="Layer 2"><g id="Layer_1-2" data-name="Layer 1"><polygon class="cls-1" points="35.01 20.58 35.01 26.84 54.06 26.84 54.06 28.78 0 28.78 0 18.64 54.06 18.64 54.06 20.58 35.01 20.58"/><polygon class="cls-1" points="114.38 18.64 114.38 28.78 60.32 28.78 60.32 26.84 79.38 26.84 79.38 20.58 60.32 20.58 60.32 18.64 114.38 18.64"/><polygon class="cls-1" points="62.26 0 62.26 20.58 60.32 20.58 60.32 1.53 54.06 1.53 54.06 20.58 52.13 20.58 52.13 0 62.26 0"/><polygon class="cls-1" points="62.26 26.84 62.26 47.43 52.13 47.43 52.13 26.84 54.06 26.84 54.06 45.89 60.32 45.89 60.32 26.84 62.26 26.84"/></g></g></svg>