<svg xmlns="http://www.w3.org/2000/svg" viewBox="0 0 55.15 95.85"><defs><style>.cls-1{fill:#231f20;}</style></defs><g id="Layer_2" data-name="Layer 2"><g id="Layer_1-2" data-name="Layer 1"><polygon class="cls-1" points="5.4 44.79 5.4 51.05 24.45 51.05 24.45 52.99 0 52.99 0 42.85 24.45 42.85 24.45 44.79 5.4 44.79"/><polygon class="cls-1" points="55.15 42.85 55.15 52.99 30.71 52.99 30.71 51.05 49.77 51.05 49.77 44.79 30.71 44.79 30.71 42.85 55.15 42.85"/><polygon class="cls-1" points="32.65 0 32.65 44.79 30.71 44.79 30.71 3.09 24.45 3.09 24.45 44.79 22.52 44.79 22.52 0 32.65 0"/><polygon class="cls-1" points="32.65 51.05 32.65 95.85 22.52 95.85 22.52 51.05 24.45 51.05 24.45 92.74 30.71 92.74 30.71 51.05 32.65 51.05"/></g></g></svg>