<svg xmlns="http://www.w3.org/2000/svg" viewBox="0 0 120.09 192.64"><defs><style>.cls-1{fill:#00aeef;}.cls-1,.cls-10,.cls-11,.cls-2,.cls-3,.cls-4,.cls-5,.cls-6,.cls-7,.cls-8,.cls-9{stroke:#231f20;stroke-miterlimit:10;}.cls-2{fill:#2fb5e8;}.cls-3{fill:#3ebfef;}.cls-4{fill:#50c7f3;}.cls-5{fill:#65cdf5;}.cls-6{fill:#83d4f4;}.cls-7{fill:#9ddcf6;}.cls-8{fill:#b6e3f8;}.cls-9{fill:#ccecf9;}.cls-10{fill:#e9f6fe;}.cls-11{fill:none;}.cls-12{font-size:15.23px;fill:#231f20;font-family:HelveticaNeueBold, HelveticaNeue;}</style></defs><g id="Layer_2" data-name="Layer 2"><g id="Layer_1-2" data-name="Layer 1"><rect class="cls-1" x="53.11" y="-32.85" width="13.88" height="119.09" transform="translate(86.75 -33.35) rotate(90)"/><rect class="cls-2" x="53.11" y="-18.96" width="13.88" height="119.09" transform="translate(100.63 -19.46) rotate(90)"/><rect class="cls-3" x="53.11" y="-5.08" width="13.88" height="119.09" transform="translate(114.51 -5.58) rotate(90)"/><rect class="cls-4" x="53.11" y="8.8" width="13.88" height="119.09" transform="translate(128.4 8.3) rotate(90)"/><rect class="cls-5" x="53.11" y="22.69" width="13.88" height="119.09" transform="translate(142.28 22.19) rotate(90)"/><rect class="cls-6" x="53.11" y="36.57" width="13.88" height="119.09" transform="translate(156.17 36.07) rotate(90)"/><rect class="cls-7" x="53.11" y="50.46" width="13.88" height="119.09" transform="translate(170.05 49.96) rotate(90)"/><rect class="cls-8" x="53.11" y="64.34" width="13.88" height="119.09" transform="translate(183.93 63.84) rotate(90)"/><rect class="cls-9" x="53.11" y="78.22" width="13.88" height="119.09" transform="translate(197.82 77.72) rotate(90)"/><rect class="cls-10" x="53.11" y="92.11" width="13.88" height="119.09" transform="translate(211.7 91.61) rotate(90)"/><rect class="cls-11" x="53.11" y="105.99" width="13.88" height="119.09" transform="translate(225.59 105.49) rotate(90)"/><text class="cls-12" transform="translate(0.5 13.06) scale(0.7 1)">C100</text><text class="cls-12" transform="translate(105.77 189.32) scale(0.7 1)">C0</text></g></g></svg>