<svg xmlns="http://www.w3.org/2000/svg" viewBox="0 0 567.88 52.53"><defs><style>.cls-1{fill:#00aeef;}.cls-1,.cls-10,.cls-11,.cls-2,.cls-3,.cls-4,.cls-5,.cls-6,.cls-7,.cls-8,.cls-9{stroke:#00aeef;stroke-miterlimit:10;}.cls-2{fill:#2fb5e8;}.cls-3{fill:#3ebfef;}.cls-4{fill:#50c7f3;}.cls-5{fill:#65cdf5;}.cls-6{fill:#83d4f4;}.cls-7{fill:#9ddcf6;}.cls-8{fill:#b6e3f8;}.cls-9{fill:#ccecf9;}.cls-10{fill:#e9f6fe;}.cls-11{fill:none;}.cls-12{font-size:17.49px;fill:#fff;font-family:HelveticaNeueBold, HelveticaNeue;}</style></defs><g id="Layer_2" data-name="Layer 2"><g id="Layer_1-2" data-name="Layer 1"><rect class="cls-1" x="0.5" y="0.5" width="51.53" height="51.53"/><rect class="cls-2" x="52.03" y="0.5" width="51.53" height="51.53"/><rect class="cls-3" x="103.57" y="0.5" width="51.53" height="51.53"/><rect class="cls-4" x="155.1" y="0.5" width="51.53" height="51.53"/><rect class="cls-5" x="206.64" y="0.5" width="51.53" height="51.53"/><rect class="cls-6" x="258.17" y="0.5" width="51.53" height="51.53"/><rect class="cls-7" x="309.71" y="0.5" width="51.53" height="51.53"/><rect class="cls-8" x="361.24" y="0.5" width="51.53" height="51.53"/><rect class="cls-9" x="412.77" y="0.5" width="51.53" height="51.53"/><rect class="cls-10" x="464.31" y="0.5" width="51.53" height="51.53"/><rect class="cls-11" x="515.84" y="0.5" width="51.53" height="51.53"/><text class="cls-12" transform="translate(5.09 48.59)">100</text><text class="cls-12" transform="translate(56.63 48.59)">90</text><text class="cls-12" transform="translate(108.16 48.59)">80</text><text class="cls-12" transform="translate(159.69 48.59)">70</text><text class="cls-12" transform="translate(211.23 48.59)">60</text><text class="cls-12" transform="translate(262.76 48.59)">50</text><text class="cls-12" transform="translate(314.3 48.59)">40</text><text class="cls-12" transform="translate(365.83 48.59)">30</text><text class="cls-12" transform="translate(417.37 48.59)">20</text><text class="cls-12" transform="translate(468.9 48.59)">10</text></g></g></svg>