<svg xmlns="http://www.w3.org/2000/svg" viewBox="0 0 99.99 100.44"><defs><style>.cls-1{fill:#00aeef;}</style></defs><g id="Layer_2" data-name="Layer 2"><g id="Layer_1-2" data-name="Layer 1"><rect class="cls-1" width="16.67" height="16.67"/><rect class="cls-1" x="33.33" width="16.67" height="16.67"/><rect class="cls-1" x="66.66" width="16.67" height="16.67"/><rect class="cls-1" x="83.33" y="16.78" width="16.67" height="16.67"/><rect class="cls-1" x="50" y="16.78" width="16.67" height="16.67"/><rect class="cls-1" x="16.67" y="16.78" width="16.67" height="16.67"/><rect class="cls-1" y="33.5" width="16.67" height="16.67"/><rect class="cls-1" x="33.33" y="33.5" width="16.67" height="16.67"/><rect class="cls-1" x="66.66" y="33.5" width="16.67" height="16.67"/><rect class="cls-1" x="83.33" y="50.28" width="16.67" height="16.67"/><rect class="cls-1" x="50" y="50.28" width="16.67" height="16.67"/><rect class="cls-1" x="16.67" y="50.28" width="16.67" height="16.67"/><rect class="cls-1" y="66.99" width="16.67" height="16.67"/><rect class="cls-1" x="33.33" y="66.99" width="16.67" height="16.67"/><rect class="cls-1" x="66.66" y="66.99" width="16.67" height="16.67"/><rect class="cls-1" x="83.33" y="83.78" width="16.67" height="16.67"/><rect class="cls-1" x="50" y="83.78" width="16.67" height="16.67"/><rect class="cls-1" x="16.67" y="83.78" width="16.67" height="16.67"/></g></g></svg>