<svg xmlns="http://www.w3.org/2000/svg" viewBox="0 0 114.01 114.02"><defs><style>.cls-1{fill:#231f20;}.cls-2{fill:#fff;}</style></defs><g id="Layer_2" data-name="Layer 2"><g id="Layer_1-2" data-name="Layer 1"><path class="cls-1" d="M58,90v24H56V90c.33,0,.67,0,1,0S57.68,90,58,90Z"/><path class="cls-1" d="M58,0V24l-1,0-1,0V0Z"/><path class="cls-1" d="M24,57c0,.34,0,.67,0,1H0V56H24C24,56.34,24,56.68,24,57Z"/><path class="cls-1" d="M114,56v2H90c0-.33,0-.66,0-1s0-.67,0-1Z"/><path class="cls-1" d="M56,24V56H24A33,33,0,0,1,56,24Z"/><path class="cls-1" d="M56,58V90A33,33,0,0,1,24,58Z"/><path class="cls-1" d="M90,58A33,33,0,0,1,58,90V58Z"/><path class="cls-1" d="M90,56H58V24A33,33,0,0,1,90,56Z"/><path class="cls-2" d="M57,90H56v0C56.34,90,56.68,90,57,90Z"/><path class="cls-2" d="M57,24l-1,0v0Z"/><path class="cls-2" d="M58,24v0l-1,0Z"/><path class="cls-2" d="M58,90v0H57C57.34,90,57.68,90,58,90Z"/><path class="cls-2" d="M24,58h0V57C24,57.35,24,57.68,24,58Z"/><path class="cls-2" d="M24,56c0,.33,0,.67,0,1V56Z"/><path class="cls-2" d="M90,56v1c0-.33,0-.67,0-1Z"/><path class="cls-2" d="M90,57v1h0C90,57.68,90,57.35,90,57Z"/></g></g></svg>