<svg xmlns="http://www.w3.org/2000/svg" viewBox="0 0 163.91 165.12"><defs><style>.cls-1{fill:#231f20;}.cls-2{fill:none;stroke:#231f20;stroke-miterlimit:10;stroke-width:1.5px;}</style></defs><g id="Layer_2" data-name="Layer 2"><g id="Layer_1-2" data-name="Layer 1"><path d="M83,16.21c-35.21,0-66.17,29-66.17,65.25l17,.1C34,53.71,56,31.19,83,31.19V58.55h0V81.82h0Z"/><path d="M47,82l13.47.07C60.48,69.26,70.58,58.91,83,58.91V47.13C63.17,47.13,47.06,62.72,47,82Z"/><path d="M83,132.82V117.24c-19.86,0-36-15.59-36.08-34.85l-13.11.07C34,110.3,56,132.82,83,132.82Z"/><path d="M83,105.46V82.18l-22.61.13C60.49,95.11,70.58,105.46,83,105.46Z"/><path class="cls-1" d="M83.06,82.36h49.16c0,28-22,50.64-49.19,50.64v15c35.2,0,65.43-29.74,65.43-66Z"/><path d="M83,105.46v11.78c19.93,0,36.08-15.7,36.08-35.06H105.64C105.64,95,95.51,105.46,83,105.46Z"/><path d="M83,31.54V47.13c19.86,0,36,15.59,36.07,34.86l13.11-.08C132.07,54.07,110.11,31.54,83,31.54Z"/><path d="M83,58.91V82.18h0l22.57-.12C105.57,69.26,95.47,58.91,83,58.91Z"/><circle class="cls-2" cx="82.66" cy="81.82" r="65.8"/><line class="cls-2" x1="82.66" y1="165.12" x2="82.66"/><polyline class="cls-2" points="163.91 82.25 49.74 82.25 0 82.25"/></g></g></svg>