<svg xmlns="http://www.w3.org/2000/svg" viewBox="0 0 59.58 60.02"><defs><style>.cls-1{fill:#231f20;}.cls-2{fill:none;stroke:#231f20;stroke-miterlimit:10;stroke-width:1.5px;}</style></defs><g id="Layer_2" data-name="Layer 2"><g id="Layer_1-2" data-name="Layer 1"><path d="M30.18,5.89c-12.8,0-24,10.55-24,23.72l6.17,0a18.14,18.14,0,0,1,17.88-18.3v9.94h0v8.46h0Z"/><path d="M17.07,29.8l4.89,0a8.34,8.34,0,0,1,8.22-8.42V17.13A12.93,12.93,0,0,0,17.07,29.8Z"/><path d="M30.18,48.28V42.61A12.92,12.92,0,0,1,17.07,30L12.3,30A18.15,18.15,0,0,0,30.18,48.28Z"/><path d="M30.18,38.33V29.87L22,29.92A8.35,8.35,0,0,0,30.18,38.33Z"/><path class="cls-1" d="M30.19,29.94H48.06a18.15,18.15,0,0,1-17.88,18.4v5.45A24.15,24.15,0,0,0,54,29.81Z"/><path d="M30.18,38.33v4.28A12.93,12.93,0,0,0,43.29,29.87H38.4A8.34,8.34,0,0,1,30.18,38.33Z"/><path d="M30.18,11.47v5.66A12.93,12.93,0,0,1,43.29,29.8l4.77,0A18.14,18.14,0,0,0,30.18,11.47Z"/><path d="M30.18,21.41v8.46h0l8.21,0A8.35,8.35,0,0,0,30.18,21.41Z"/><circle class="cls-2" cx="30.05" cy="29.74" r="23.92"/><line class="cls-2" x1="30.05" y1="60.02" x2="30.05"/><polyline class="cls-2" points="59.58 29.89 18.08 29.89 0 29.89"/></g></g></svg>