<svg xmlns="http://www.w3.org/2000/svg" viewBox="0 0 133.31 131.85"><defs><style>.cls-1,.cls-3{fill:none;stroke:#231f20;stroke-miterlimit:10;}.cls-1{stroke-width:1.5px;}.cls-2{fill:#231f20;}</style></defs><g id="Layer_2" data-name="Layer 2"><g id="Layer_1-2" data-name="Layer 1"><line class="cls-1" x1="67.02" y1="131.85" x2="67.02" y2="77.95"/><line class="cls-1" x1="50.27" y1="62.65" y2="62.65"/><line class="cls-1" x1="67.02" y1="47.6" x2="67.02"/><line class="cls-1" x1="133.31" y1="62.65" x2="83.59" y2="62.65"/><circle class="cls-1" cx="67.53" cy="62.82" r="49.71"/><polygon class="cls-2" points="61.07 56.38 36.46 23.8 27.55 33.81 61.07 56.38"/><polyline class="cls-2" points="98.47 101.27 103.31 97.32 108.01 91.67 73.86 68.69"/><polygon class="cls-2" points="60.6 69.25 28.02 93.86 38.03 102.77 60.6 69.25"/><polyline class="cls-2" points="105.88 30.81 95.87 21.9 73.31 55.42"/><polygon class="cls-2" points="58.09 62.92 38.9 55.07 39.01 70.23 58.09 62.92"/><polyline class="cls-2" points="95.01 70.23 94.89 55.07 75.82 62.38"/><polygon class="cls-2" points="66.96 71.2 59.1 90.39 74.27 90.28 66.96 71.2"/><polyline class="cls-2" points="74.8 34.28 59.63 34.39 66.94 53.47"/><line class="cls-3" x1="67.02" y1="68.61" x2="67.02" y2="57.23"/><line class="cls-3" x1="72.91" y1="62.65" x2="61.52" y2="62.65"/></g></g></svg>