<svg xmlns="http://www.w3.org/2000/svg" viewBox="0 0 133.32 131.86"><defs><style>.cls-1{fill:#231f20;}.cls-2{fill:none;stroke:#231f20;stroke-miterlimit:10;stroke-width:1.5px;}</style></defs><g id="Layer_2" data-name="Layer 2"><g id="Layer_1-2" data-name="Layer 1"><polygon class="cls-1" points="91.98 27.34 100.64 35.06 72.45 56.35 91.98 27.34"/><polygon class="cls-1" points="39.68 28.64 60.97 56.83 31.97 37.31 39.68 28.64"/><polygon class="cls-1" points="72.94 67.83 101.94 87.36 94.24 96.03 72.94 67.83"/><polygon class="cls-1" points="33.27 89.61 61.46 68.32 41.93 97.33 33.27 89.61"/><polyline class="cls-2" points="67.03 131.86 67.03 112.52 67.03 62.65 67.03 13.12 67.03 0"/><polyline class="cls-2" points="133.32 62.65 117.25 62.65 67.03 62.65 17.83 62.65 0 62.65"/><path class="cls-2" d="M67,112.52a49.7,49.7,0,0,1-49.2-49.7v-.17A49.69,49.69,0,0,1,67,13.12h.5a49.72,49.72,0,0,1,49.72,49.54v.17a49.72,49.72,0,0,1-49.72,49.71Z"/></g></g></svg>