<svg xmlns="http://www.w3.org/2000/svg" xmlns:xlink="http://www.w3.org/1999/xlink" viewBox="0 0 801 181.8"><defs><style>.cls-1{fill:#fff200;}.cls-1,.cls-10,.cls-11,.cls-12,.cls-2,.cls-3,.cls-4,.cls-5,.cls-6,.cls-7,.cls-8,.cls-9{stroke:#231f20;stroke-miterlimit:10;}.cls-2{fill:#fcef42;}.cls-3{fill:#fcf05e;}.cls-4{fill:#fcf175;}.cls-5{fill:#fef38b;}.cls-6{fill:#fdf499;}.cls-7{fill:#fef6ad;}.cls-8{fill:#fdf8c0;}.cls-9{fill:#fefad2;}.cls-10{fill:#fefce4;}.cls-11{fill:none;}.cls-12{fill:url(#linear-gradient);}.cls-13{font-size:15.23px;fill:#231f20;font-family:HelveticaNeueBold, HelveticaNeue;}</style><linearGradient id="linear-gradient" x1="0.5" y1="144.93" x2="800.5" y2="144.93" gradientTransform="translate(545.43 -255.57) rotate(90)" gradientUnits="userSpaceOnUse"><stop offset="0" stop-color="#fff200"/><stop offset="1" stop-color="#fff"/></linearGradient></defs><g id="Layer_2" data-name="Layer 2"><g id="Layer_1-2" data-name="Layer 1"><rect class="cls-1" x="0.5" y="35.84" width="72.73" height="72.73"/><rect class="cls-2" x="73.23" y="35.84" width="72.73" height="72.73"/><rect class="cls-3" x="145.95" y="35.84" width="72.73" height="72.73"/><rect class="cls-4" x="218.68" y="35.84" width="72.73" height="72.73"/><rect class="cls-5" x="291.41" y="35.84" width="72.73" height="72.73"/><rect class="cls-6" x="364.14" y="35.84" width="72.73" height="72.73"/><rect class="cls-7" x="436.86" y="35.84" width="72.73" height="72.73"/><rect class="cls-8" x="509.59" y="35.84" width="72.73" height="72.73"/><rect class="cls-9" x="582.32" y="35.84" width="72.73" height="72.73"/><rect class="cls-10" x="655.05" y="35.84" width="72.73" height="72.73"/><rect class="cls-11" x="727.77" y="35.84" width="72.73" height="72.73"/><rect class="cls-12" x="364.14" y="-255.07" width="72.73" height="800" transform="translate(255.57 545.43) rotate(-90)"/><line class="cls-11" x1="0.5" x2="0.5" y2="35.84"/><line class="cls-11" x1="73.23" x2="73.23" y2="35.84"/><line class="cls-11" x1="145.95" x2="145.95" y2="35.84"/><line class="cls-11" x1="218.68" x2="218.68" y2="35.84"/><line class="cls-11" x1="291.41" x2="291.41" y2="35.84"/><line class="cls-11" x1="364.14" x2="364.14" y2="35.84"/><line class="cls-11" x1="436.86" x2="436.86" y2="35.84"/><line class="cls-11" x1="509.59" x2="509.59" y2="35.84"/><line class="cls-11" x1="582.32" x2="582.32" y2="35.84"/><line class="cls-11" x1="655.05" x2="655.05" y2="35.84"/><line class="cls-11" x1="727.77" x2="727.77" y2="35.84"/><line class="cls-11" x1="800.5" x2="800.5" y2="35.84"/><text class="cls-13" transform="translate(10.5 25.84)">100</text><text class="cls-13" transform="translate(83.23 25.84)">90</text><text class="cls-13" transform="translate(155.95 25.84)">80</text><text class="cls-13" transform="translate(229.15 25.84)">70</text><text class="cls-13" transform="translate(302.34 25.84)">60</text><text class="cls-13" transform="translate(375.54 25.84)">50</text><text class="cls-13" transform="translate(448.74 25.84)">40</text><text class="cls-13" transform="translate(521.93 25.84)">30</text><text class="cls-13" transform="translate(595.13 25.84)">20</text><text class="cls-13" transform="translate(668.32 25.84)">10</text><text class="cls-13" transform="translate(736.52 25.84)">0</text></g></g></svg>