<svg xmlns="http://www.w3.org/2000/svg" xmlns:xlink="http://www.w3.org/1999/xlink" viewBox="0 0 725.86 82.63"><defs><style>.cls-1,.cls-2{stroke:#231f20;stroke-miterlimit:10;}.cls-1{fill:url(#linear-gradient);}.cls-2{fill:none;}.cls-3{font-size:13.8px;fill:#231f20;font-family:HelveticaNeueBold, HelveticaNeue;}</style><linearGradient id="linear-gradient" x1="338.23" y1="163.7" x2="1063.09" y2="163.7" gradientTransform="translate(1063.59 212.88) rotate(180)" gradientUnits="userSpaceOnUse"><stop offset="0" stop-color="#fff"/><stop offset="1" stop-color="#fff100"/></linearGradient></defs><g id="Layer_2" data-name="Layer 2"><g id="Layer_1-2" data-name="Layer 1"><polyline class="cls-1" points="725.36 16.24 725.36 82.13 0.5 82.13"/><line class="cls-2" x1="0.5" x2="0.5" y2="82.13"/><line class="cls-2" x1="66.4" x2="66.4" y2="82.13"/><line class="cls-2" x1="132.29" x2="132.29" y2="82.13"/><line class="cls-2" x1="198.19" x2="198.19" y2="82.13"/><line class="cls-2" x1="264.08" x2="264.08" y2="82.13"/><line class="cls-2" x1="329.98" x2="329.98" y2="82.13"/><line class="cls-2" x1="395.88" x2="395.88" y2="82.13"/><line class="cls-2" x1="461.77" x2="461.77" y2="82.13"/><line class="cls-2" x1="527.67" x2="527.67" y2="82.13"/><line class="cls-2" x1="593.56" x2="593.56" y2="82.13"/><line class="cls-2" x1="659.46" x2="659.46" y2="82.13"/><text class="cls-3" transform="translate(9.56 23.42)">100</text><text class="cls-3" transform="translate(75.46 23.42)">90</text><text class="cls-3" transform="translate(141.35 23.42)">80</text><text class="cls-3" transform="translate(207.67 23.42)">70</text><text class="cls-3" transform="translate(273.99 23.42)">60</text><text class="cls-3" transform="translate(340.31 23.42)">50</text><text class="cls-3" transform="translate(406.63 23.42)">40</text><text class="cls-3" transform="translate(472.95 23.42)">30</text><text class="cls-3" transform="translate(539.27 23.42)">20</text><text class="cls-3" transform="translate(605.59 23.42)">10</text><text class="cls-3" transform="translate(667.38 23.42)">0</text></g></g></svg>