<svg xmlns="http://www.w3.org/2000/svg" viewBox="0 0 115.13 115.13"><defs><style>.cls-1{fill:#fff200;}.cls-2{fill:none;stroke:#fff200;stroke-miterlimit:10;stroke-width:3px;}</style></defs><g id="Layer_2" data-name="Layer 2"><g id="Layer_1-2" data-name="Layer 1"><path class="cls-1" d="M57.59,113.23h0a56.48,56.48,0,0,1-8.62-.66L57.5,57.8l0-.15h0l0,0ZM57.5,58.16l-.22,1.47.22,0Zm8.79,54.39L57.91,59.62l.3-.07-.63-1.91h0v0h0v0h0v0l0,.07v0l0,0v-.06h0l0,0,0,0,0,0h-.09l.06,0h-.12l-.25,0H30.63L1.9,58v-.43A56,56,0,0,1,2.56,49L55.45,57.2h.93l1,.29-.92-.29h.35l.59.3h0l-.07,0-.49-.25H57L12.48,24.9a56.5,56.5,0,0,1,5.64-6.62l39.07,38.9h.06l.25.3-.08-.15-.11-.16h0l-.74-1.45a1.28,1.28,0,0,0-.25.15L24.74,12.6A55.94,55.94,0,0,1,32.17,8L57.39,57.17h0L40.25,4.65a55.37,55.37,0,0,1,8.52-2.06L57.2,55.51l-.28.07.52,1.59h0l0,.19v-.19h0l0-.15V1.89h.06a56.75,56.75,0,0,1,8.55.66L57.66,57.17h0l-.1.31h0l0-.06v0l.11-.15.08-.15h0L90.19,12.45a55.83,55.83,0,0,1,6.64,5.65L59,56.08a2.11,2.11,0,0,0-.23-.19l-.93,1.28H58l-.29.3.29-.3h.12l-.43.32h0l.12-.06.36-.26h.15l1.11-.57c0-.08-.09-.16-.15-.24l43.25-31.64a56.37,56.37,0,0,1,4.58,7.41l-48.68,25h.39l51.67-16.94a55.25,55.25,0,0,1,2.06,8.51L59.65,57.2v.28h53.58v.08a55.79,55.79,0,0,1-.67,8.67L57.82,57.64l-.18,0h0l0,0h0l.16.08L102.6,90.3A56.49,56.49,0,0,1,97,96.91L57.69,57.7l-.07-.07h0l0,0h0l0,.06v0l.12.16.82,1.59.23-.14,31.56,43.31a56.22,56.22,0,0,1-7.44,4.57L57.62,57.72,74.8,110.51A55.19,55.19,0,0,1,66.29,112.55ZM57.72,57.71,59.05,59a2,2,0,0,0,.19-.22Zm.33-.1,1.58.24a2.12,2.12,0,0,0,0-.24Zm-.54,0Zm0,0h0Zm0,0h0Zm0,0Zm0,0Zm0,0h0Zm0,0h0Zm0,0Zm0,0Zm0,0Zm0,0h0Zm0,0h0Zm0,0h0Zm0,0Zm0,0h0Zm0,0Zm0,0Zm0,0Zm0,0h0Zm0,0h0Zm0,0h0Zm.08,0h0Zm0,0Zm0,0Zm0,0v0h0Zm0,0h0Zm-.21,0Zm.47,0h.41l1.34-.21s0,0,0-.07Zm-.24,0h0Zm-.06,0Zm-.08-.08h0v0Zm-1.42-1.31a2.11,2.11,0,0,0-.19.23l1.18.86h.1Zm1.48-.62v1.7h0l.27-1.67Zm2,1.45-.71.23h.76A1.74,1.74,0,0,0,59.55,56.92ZM40.42,110.54a55.19,55.19,0,0,1-8.11-3.36L56.64,59.43l.28.11Zm-15.55-7.92A55,55,0,0,1,18.24,97L56.72,58.42l-.63.63a2.11,2.11,0,0,0,.23.19l1.18-1.6-.1.19ZM12.58,90.36A55.15,55.15,0,0,1,8,82.93l49.39-25.3.07,0-.16.12-1.58.81c.05.08.09.16.15.24Zm94.59-7.51L59.43,58.5a2.49,2.49,0,0,0,.11-.29l51,16.54A55.48,55.48,0,0,1,107.17,82.85Zm-102.54-8a56.53,56.53,0,0,1-2-8.52l52.93-8.4c0,.1,0,.19.07.29l1.81-.58ZM57.72,57.62h0Zm-.08-.25.06-.2h0Zm-2.06-.45-51-16.46a56.09,56.09,0,0,1,3.34-8.1L55.7,56.64Zm2.9-1.23-.27-.11,16.42-51a55.1,55.1,0,0,1,8.11,3.34Z"/><circle class="cls-2" cx="57.56" cy="57.56" r="56.06"/></g></g></svg>